<?xml version="1.0" standalone="no"?>
<!DOCTYPE svg PUBLIC "-//W3C//DTD SVG 20010904//EN"
 "http://www.w3.org/TR/2001/REC-SVG-20010904/DTD/svg10.dtd">
<svg version="1.0" xmlns="http://www.w3.org/2000/svg"
 width="260.000000pt" height="260.000000pt" viewBox="0 0 260.000000 260.000000"
 preserveAspectRatio="xMidYMid meet">
<metadata>
Created by potrace 1.11, written by Peter Selinger 2001-2013
</metadata>
<g transform="translate(0.000000,260.000000) scale(0.100000,-0.100000)"
fill="#000000" stroke="none">
<path d="M410 2584 c-194 -51 -345 -204 -395 -399 -23 -89 -23 -1681 0 -1770
50 -197 203 -350 400 -400 89 -23 1681 -23 1770 0 197 50 350 203 400 400 23
89 23 1681 0 1770 -50 197 -203 350 -400 400 -86 22 -1691 21 -1775 -1z m913
-575 c81 -27 146 -69 204 -133 81 -89 122 -193 123 -311 l0 -60 66 -19 c225
-65 376 -302 337 -531 -34 -195 -193 -360 -382 -395 -31 -6 -251 -10 -517 -10
l-464 0 0 394 0 394 -86 3 c-79 4 -87 6 -110 32 -30 35 -31 68 0 103 21 26 30
28 115 32 l91 4 0 57 c1 195 129 370 319 437 89 32 215 33 304 3z"/>
<path d="M1064 1849 c-113 -43 -192 -150 -202 -274 l-5 -65 318 0 318 0 -5 65
c-17 212 -230 349 -424 274z"/>
<path d="M860 1024 l0 -315 393 3 c445 4 448 5 536 84 56 50 86 105 102 185
28 141 -78 309 -219 349 -22 6 -192 10 -424 10 l-388 0 0 -316z"/>
</g>
</svg>
